<svg xmlns="http://www.w3.org/2000/svg" viewBox="0 0 64 64" id="advice">
  <path d="M47,5c-7.16846,0-13,5.83203-13,13-.08539,10.98841,13.20297,17.08863,21.45858,9.87285-.00008.0002,2.83439,2.83418,2.83439,2.83418.59216.63079,1.73605.15777,1.70701-.70707.00002.00004.00002-11.99996.00002-11.99996,0-7.16797-5.83154-13-13-13ZM58,27.58594l-1.80762-1.80762c-.39062-.39062-1.02344-.39062-1.41406,0-2.07764,2.07715-4.83984,3.22168-7.77832,3.22168-14.59029-.60265-14.59124-21.3971.00008-22.00002,6.06535.00002,10.99992,4.93459,10.99992,11.00002v9.58594Z" fill="#000000" class="color000000 svgShape"></path>
  <path d="M35.4458,6.81445c.16309-.52734-.13281-1.08691-.66064-1.25-8.14149-2.6164-16.92509,3.86182-16.78502,12.43566-.00013-.00011-.00013,11.99989-.00013,11.99989-.00968.53984.46227,1.00961,1.00001.99999.26024,0,.51562-.10156.70702-.29296l2.83057-2.83105c3.28693,2.86719,8.07764,3.8665,12.24757,2.55954.52782-.16306.82372-.72263.66063-1.24997-.16357-.52832-.72559-.82129-1.25049-.66016-1.02051.31445-2.09521.47461-3.19531.47461-2.93457,0-5.69971-1.14258-7.78467-3.21875-.39062-.38867-1.02197-.38867-1.4126.00195l-1.80273,1.80273v-9.58594c0-6.06543,4.93457-11,11-11,1.1001,0,2.1748.16016,3.19531.47461.5249.16211,1.08691-.13184,1.25049-.66016Z" fill="#000000" class="color000000 svgShape"></path>
  <path d="M30.27979 14h-6.27979c-1.31259.02141-1.31583 1.97798.00004 2-.00004 0 6.27974 0 6.27974 0 1.31259-.02141 1.31583-1.97798 0-2zM30.27979 20h-6.27979c-1.31259.02141-1.31583 1.97798.00004 2-.00004 0 6.27974 0 6.27974 0 1.31259-.02141 1.31583-1.97798 0-2zM47 10c-2.75684 0-5 2.24316-5 5 0 .55273.44775 1 1 1s1-.44727 1-1c0-1.6543 1.3457-3 3-3 3.32691.0011 4.13734 4.70533 1.01161 5.82521-1.39618.48578-2.13595 1.79044-2.01157 3.1748.02129 1.31214 1.97781 1.31625 1.99995-.00006-.04843-.549.05688-1.07818.68657-1.29193 5.21671-1.91458 3.87982-9.66475-1.68657-9.70802zM47 24c-1.31442.02229-1.31424 1.97785.00004 2 1.31439-.02233 1.31419-1.97789-.00004-2zM4 53.91699c0 .55273.44775 1 1 1h7.25391c1.5473 0 2.80969-1.18158 2.96844-2.6875h.76251c.37402 0 .74414.10059 1.06885.29004l7.71875 4.50098c4.14601 2.41975 9.20778 2.63205 13.53418.58203 0 0 19.44482-9.20703 19.44482-9.20703 4.29534-2.10668 1.85686-8.5949-2.77745-7.32613.00011-.00004-10.53731 3.05666-10.53731 3.05666.5189-2.68324-1.66062-5.25407-4.3874-5.22562.00001-.00003-7.22801-.00003-7.22801-.00003-.60156 0-1.18701-.16992-1.69482-.49316l-3.57422-2.26855c-1.49609-.94922-3.22363-1.45117-4.99609-1.45117h-7.3338c-.15875-1.50592-1.42114-2.6875-2.96844-2.6875h-7.25391c-1.30148.02429-1.3267 1.97278.00005 2-.00005 0 7.25385 0 7.25385 0 .55127 0 1 .44824 1 1v11.22949c.02739 1.31622 1.97492 1.31448 2-.00004 0 .00004 0-9.54195 0-9.54195h7.30225c1.39209 0 2.74951.39453 3.9248 1.14062 1.63597.92191 4.33546 3.24151 6.34031 3.07225.00002.00001 7.22804.00001 7.22804.00001 1.35889 0 2.46436 1.10547 2.46436 2.46484 0 1.3584-1.10547 2.46387-2.46436 2.46387h-10.34619c-.55225 0-1 .44727-1 1s.44775 1 1 1h10.34619c1.19147 0 2.26947-.47607 3.07092-1.2395 0 0 12.41101-3.59937 12.41101-3.59937.98291-.28906 2.01807.24707 2.3584 1.21191.33008.93555-.09766 1.96191-.99414 2.38672l-19.44434 9.20605c-3.73633 1.77051-8.1001 1.58398-11.6709-.50195l-7.71924-4.50195c-.63037-.36719-1.34863-.56152-2.07617-.56152h-1.73096c-.55225 0-1 .44727-1 1v.6875c0 .55176-.44873 1-1 1h-7.25391c-.55225 0-1 .44727-1 1z" fill="#000000" class="color000000 svgShape"></path>
  <path d="M10.62689,38.43994c-.02229-1.31442-1.97785-1.31424-2,.00004.02236,1.31438,1.97786,1.31418,2-.00004Z" fill="#000000" class="color000000 svgShape"></path>
</svg>
