<svg xmlns="http://www.w3.org/2000/svg" enable-background="new 0 0 100 100" viewBox="0 0 100 100" id="ApproveCv">
  <path d="M89.846,87.459c-0.319-0.302-0.757-0.487-1.193-0.487c-2.774,0-5.042-2.269-5.042-5.042V14.708
	c0-2.774-2.269-5.041-5.042-5.041H62.722c-0.924,0-1.681,0.756-1.681,1.68c0,0.924,0.757,1.68,1.681,1.68h15.848
	c0.924,0,1.681,0.756,1.681,1.681V81.93c0,1.848,0.587,3.579,1.68,5.042H31.514c-1.781,0-3.349-0.938-4.247-2.341
	c5.385-1.755,9.288-6.821,9.288-12.784c0-6.253-4.291-11.522-10.083-13.019v-44.12c0-0.572-0.101-1.143-0.287-1.681h23.091
	c0.924,0,1.681-0.756,1.681-1.68c0-0.925-0.757-1.68-1.681-1.68H21.43c-0.437,0-0.874,0.184-1.193,0.487
	c-0.303,0.319-0.487,0.756-0.487,1.193c0,0.454,0.167,0.874,0.487,1.193c0.319,0.32,0.739,0.487,1.193,0.487
	c0.924,0,1.681,0.756,1.681,1.681v43.694c-7.413,0-13.444,6.032-13.444,13.445s6.031,13.445,13.444,13.445
	c0.233,0,0.465-0.007,0.696-0.018c1.294,2.976,4.256,5.06,7.707,5.06h57.139c0.454,0,0.874-0.168,1.193-0.487
	c0.319-0.319,0.487-0.739,0.487-1.193C90.333,88.215,90.148,87.779,89.846,87.459z M23.111,61.764c0.574,0,1.132,0.059,1.68,0.152
	c0.579,0.097,1.14,0.244,1.681,0.436c1.271,0.451,2.422,1.148,3.401,2.037l-3.401,3.401l-1.681,1.68l-1.68,1.681l-1.261,1.261
	l-2.173-2.173c-0.656-0.657-1.72-0.657-2.376,0c-0.656,0.656-0.656,1.72,0,2.377l3.361,3.361c0.328,0.328,0.758,0.492,1.188,0.492
	c0.43,0,0.86-0.165,1.189-0.492l0.072-0.073l1.68-1.68l1.681-1.681l5.502-5.502c0.778,1.429,1.22,3.067,1.22,4.806
	c0,4.381-2.812,8.106-6.722,9.495c-0.541,0.192-1.102,0.339-1.681,0.436c-0.548,0.093-1.107,0.152-1.68,0.152
	c-5.56,0-10.083-4.523-10.083-10.083S17.551,61.764,23.111,61.764z M54.319,11.347c0-0.925,0.757-1.68,1.681-1.68
	s1.68,0.756,1.68,1.68c0,0.924-0.756,1.68-1.68,1.68S54.319,12.271,54.319,11.347z M31.514,36.555h43.694
	c0.928,0,1.681,0.752,1.681,1.681c0,0.928-0.752,1.681-1.681,1.681H31.514c-0.928,0-1.681-0.753-1.681-1.681
	C29.833,37.308,30.586,36.555,31.514,36.555z M61.764,31.514c0-0.928,0.752-1.681,1.68-1.681h11.764
	c0.928,0,1.681,0.752,1.681,1.681c0,0.928-0.752,1.68-1.681,1.68H63.444C62.516,33.194,61.764,32.442,61.764,31.514z M61.764,24.792
	c0-0.928,0.752-1.681,1.68-1.681h11.764c0.928,0,1.681,0.753,1.681,1.681c0,0.928-0.752,1.68-1.681,1.68H63.444
	C62.516,26.472,61.764,25.72,61.764,24.792z M61.764,18.069c0-0.928,0.752-1.68,1.68-1.68h11.764c0.928,0,1.681,0.752,1.681,1.68
	c0,0.928-0.752,1.681-1.681,1.681H63.444C62.516,19.75,61.764,18.998,61.764,18.069z M76.889,51.68c0,0.928-0.752,1.681-1.681,1.681
	H31.514c-0.928,0-1.681-0.752-1.681-1.681c0-0.928,0.752-1.68,1.681-1.68h43.694C76.137,50,76.889,50.752,76.889,51.68z
	 M53.361,60.083H38.236c-0.928,0-1.681-0.752-1.681-1.681c0-0.928,0.752-1.68,1.681-1.68h15.125c0.928,0,1.68,0.752,1.68,1.68
	C55.041,59.331,54.289,60.083,53.361,60.083z M29.833,44.958c0-0.925,0.756-1.681,1.681-1.681h13.444
	c0.924,0,1.681,0.756,1.681,1.681c0,0.924-0.757,1.681-1.681,1.681H31.514C30.589,46.639,29.833,45.882,29.833,44.958z
	 M51.68,46.639c-0.925,0-1.68-0.757-1.68-1.681c0-0.925,0.756-1.681,1.68-1.681c0.924,0,1.681,0.756,1.681,1.681
	C53.361,45.882,52.604,46.639,51.68,46.639z M76.889,44.958c0,0.924-0.757,1.681-1.681,1.681H58.403
	c-0.925,0-1.681-0.757-1.681-1.681c0-0.925,0.756-1.681,1.681-1.681h16.805C76.132,43.277,76.889,44.034,76.889,44.958z
	 M48.319,63.444h10.084c0.924,0,1.68,0.756,1.68,1.681c0,0.924-0.756,1.68-1.68,1.68H48.319c-0.925,0-1.68-0.756-1.68-1.68
	C46.639,64.2,47.395,63.444,48.319,63.444z M65.125,66.805c-0.925,0-1.681-0.756-1.681-1.68c0-0.925,0.756-1.681,1.681-1.681
	c0.924,0,1.68,0.756,1.68,1.681C66.805,66.049,66.049,66.805,65.125,66.805z M76.889,65.125c0,0.924-0.757,1.68-1.681,1.68h-3.361
	c-0.924,0-1.681-0.756-1.681-1.68c0-0.925,0.756-1.681,1.681-1.681h3.361C76.132,63.444,76.889,64.2,76.889,65.125z M75.208,73.527
	H48.319c-0.928,0-1.68-0.752-1.68-1.68s0.752-1.68,1.68-1.68h26.889c0.928,0,1.681,0.752,1.681,1.68S76.137,73.527,75.208,73.527z
	 M70.166,76.889c0.928,0,1.681,0.752,1.681,1.68c0,0.928-0.752,1.681-1.681,1.681H48.319c-0.928,0-1.68-0.752-1.68-1.681
	c0-0.928,0.752-1.68,1.68-1.68H70.166z M43.278,78.569c0,0.924-0.757,1.681-1.681,1.681c-0.924,0-1.681-0.757-1.681-1.681
	c0-0.925,0.756-1.68,1.681-1.68C42.521,76.889,43.278,77.645,43.278,78.569z M43.278,71.847c0,0.924-0.757,1.68-1.681,1.68
	c-0.924,0-1.681-0.756-1.681-1.68c0-0.925,0.756-1.68,1.681-1.68C42.521,70.167,43.278,70.923,43.278,71.847z M43.278,65.125
	c0,0.924-0.757,1.68-1.681,1.68c-0.924,0-1.681-0.756-1.681-1.68c0-0.925,0.756-1.681,1.681-1.681
	C42.521,63.444,43.278,64.2,43.278,65.125z M34.875,21.43v6.722c0,0.927,0.754,1.681,1.68,1.681h1.681
	c0.926,0,1.68-0.754,1.68-1.681c0-0.928,0.753-1.68,1.681-1.68c0.928,0,1.681,0.752,1.681,1.68c0,2.78-2.262,5.042-5.042,5.042
	h-1.681c-2.78,0-5.041-2.262-5.041-5.042V21.43c0-2.78,2.262-5.041,5.041-5.041h1.681c2.78,0,5.042,2.261,5.042,5.041
	c0,0.928-0.753,1.681-1.681,1.681c-0.928,0-1.681-0.752-1.681-1.681c0-0.926-0.754-1.68-1.68-1.68h-1.681
	C35.629,19.75,34.875,20.504,34.875,21.43z M49.569,17.662l1.73,6.923l1.731-6.923c0.225-0.9,1.141-1.446,2.038-1.223
	c0.9,0.225,1.448,1.137,1.223,2.038l-3.361,13.444c-0.188,0.747-0.859,1.273-1.631,1.273c-0.771,0-1.443-0.525-1.63-1.273
	l-3.362-13.444c-0.224-0.901,0.323-1.813,1.223-2.038C48.43,16.216,49.345,16.761,49.569,17.662z" fill="#000000" class="color000000 svgShape"></path>
</svg>
