<svg xmlns="http://www.w3.org/2000/svg" viewBox="0 0 512 512" id="CareerAdvancement">
  <path d="m502,374.159h-8.589v-145.562c0-7.331-5.964-13.294-13.295-13.294H222.381c-7.33,0-13.294,5.964-13.294,13.294v40.137c-6.387-2.079-13.154-3.872-20.284-5.359-.325-.068-.649-.101-.971-.115-.267-.094-.54-.176-.825-.233-2.555-.509-5.162-.978-7.793-1.402v-17.886c16.906-12.994,30.657-35.831,34.981-69.729,10.816-28.674,19.651-70.608,1.122-108.844-.925-1.907-2.787-3.186-4.899-3.362-2.114-.178-4.161.774-5.39,2.501-8.184,11.507-16.208,8.915-32.146,2.46-9.336-3.782-19.91-8.064-31.44-7.475-9.306.48-35.481,1.831-43.236,16.682-6.511-.991-13.277-.018-19.253,2.855-9.561,4.599-20.707,16.424-19.521,46.643.718,18.266,5.709,37.371,9.874,48.526,4.322,33.905,18.075,56.747,34.983,69.742v17.885c-2.553.412-5.08.867-7.557,1.359-.129.017-.257.031-.386.057-57.824,11.572-92.347,42.957-92.347,83.952v99.775c0,3.313,2.687,6,6,6h61.726s.006,0,.01,0,.006,0,.01,0h140.013s.006,0,.01,0,.006,0,.01,0h61.726c3.313,0,6-2.687,6-6v-28.998h206.692c12.023,0,21.805-9.781,21.805-21.804v-15.805c0-3.313-2.687-6-6-6ZM221.087,228.597c0-.702.593-1.294,1.294-1.294h257.735c.702,0,1.295.593,1.295,1.294v145.562h-9.999v-130.856c0-3.313-2.687-6-6-6h-228.325c-3.313,0-6,2.687-6,6v34.468c-3.187-1.627-6.532-3.152-10-4.594v-44.58Zm58.416,145.562v-3.966l58.542-58.541,29.509,29.509c1.125,1.125,2.65,1.757,4.242,1.757s3.117-.632,4.242-1.757l52.523-52.524v16.898c0,3.313,2.687,6,6,6s6-2.687,6-6v-31.383c0-.378-.039-.746-.106-1.104-.003-.019-.005-.039-.009-.058-.071-.361-.177-.708-.309-1.042-.01-.025-.018-.051-.028-.076-.141-.342-.314-.667-.513-.975-.013-.021-.024-.043-.039-.063-.442-.664-1.013-1.235-1.677-1.677-.021-.014-.044-.026-.066-.04-.307-.199-.631-.371-.973-.512-.025-.01-.05-.018-.076-.028-.334-.133-.683-.238-1.043-.309-.018-.004-.037-.005-.055-.008-.359-.067-.728-.106-1.107-.106h-31.383c-3.313,0-6,2.687-6,6s2.687,6,6,6h16.898l-48.281,48.281-29.509-29.509c-1.125-1.125-2.65-1.757-4.242-1.757s-3.117.632-4.242,1.757l-54.3,54.299v-6.232c0-25.094-13.019-46.63-36.416-62.208v-35.48h216.325v124.856h-179.909ZM84.153,89.641c4.973-2.39,10.809-2.707,16.007-.867,1.702.602,3.586.405,5.127-.536,1.542-.941,2.577-2.526,2.819-4.316.959-7.077,13.017-11.569,33.953-12.648,8.868-.464,17.737,3.137,26.318,6.612,12.807,5.187,27.054,10.956,39.628.782,7.276,20.069,7.82,43.967,1.673,69.452-2.922-8.273-7.185-16.208-12.767-23.742-1.163-1.57-2.971-2.429-4.824-2.429-.875,0-1.761.192-2.593.591-14.596,7.004-30.6,10.554-47.59,10.554h-.162c-17.014.057-33.093-3.528-47.735-10.554-2.593-1.244-5.704-.472-7.417,1.838-5.341,7.208-9.474,14.784-12.38,22.671-4.638-23.216-4.868-50.285,9.942-57.41Zm-2.972,82.646c.653-13.031,4.778-25.392,12.292-36.815,15.001,6.412,31.246,9.617,48.271,9.624,17.048.005,33.286-3.212,48.287-9.624,7.513,11.423,11.638,23.785,12.292,36.815-6.337,50.218-34.946,72.712-60.571,72.712s-54.232-22.494-60.57-72.712Zm60.57,84.711c8.439,0,17.133-1.936,25.463-5.898v15.695c0,2.998,2.213,5.536,5.184,5.944,1.974.271,3.942.569,5.894.894-4.955,11.007-19.718,19.001-36.541,19.001s-31.586-7.995-36.54-19.002c1.95-.324,3.919-.623,5.896-.894,2.97-.408,5.184-2.946,5.184-5.944v-15.693c8.33,3.962,17.023,5.898,25.462,5.898Zm125.752,183.768h-49.735v-68.675c0-3.313-2.687-6-6-6s-6,2.687-6,6v68.675H77.735v-68.675c0-3.313-2.687-6-6-6s-6,2.687-6,6v68.675H16v-93.775c0-33.594,28.758-59.88,77.247-71.007,5.875,16.705,25.462,28.65,48.503,28.65s42.626-11.944,48.504-28.648c8.012,1.841,15.494,4.093,22.389,6.731.143.064.289.12.437.172,34.535,13.339,54.424,36.248,54.424,64.103v93.775Zm228.497-44.802c0,5.406-4.398,9.804-9.805,9.804h-206.692v-19.609h216.497v9.805Z" fill="#000000" class="color000000 svgShape"></path>
</svg>
