<svg xmlns="http://www.w3.org/2000/svg" viewBox="0 0 64 64" id="Global">
  <path d="M3 48h29.051a14.945 14.945 0 0 0 4.56 9.795c.007.008.009.018.017.026.089.085.186.159.277.241.238.217.477.433.728.635.141.113.289.216.433.324.235.175.469.351.715.512.177.117.361.221.543.33.224.134.446.271.678.394.211.112.428.209.644.311.216.101.428.207.649.298.237.098.48.179.721.265.211.075.419.156.635.221.261.079.528.14.794.205.205.05.407.109.616.15.302.06.609.099.916.14.179.024.355.06.536.078.491.048.987.075 1.487.075s.996-.027 1.487-.075c.181-.018.357-.053.536-.078.307-.042.614-.08.916-.14.209-.042.41-.1.616-.15.266-.065.533-.125.794-.205.216-.065.424-.147.636-.221.241-.085.484-.167.721-.264.221-.091.434-.197.65-.299.215-.101.432-.198.643-.31.232-.123.454-.26.678-.394.182-.109.365-.213.543-.33.245-.161.479-.337.715-.512.145-.108.292-.211.433-.324.251-.202.49-.417.728-.635.091-.083.188-.156.277-.241.008-.007.01-.018.017-.026C60.225 55.064 62 51.239 62 47s-1.775-8.064-4.611-10.795c-.007-.008-.009-.018-.017-.026-.089-.085-.186-.159-.277-.241a15.675 15.675 0 0 0-.728-.635c-.12-.096-.245-.184-.367-.277V13a1 1 0 0 0-1-1H44v-1c0-4.962-4.037-9-9-9H23c-4.963 0-9 4.038-9 9v1H3a1 1 0 0 0-1 1v34a1 1 0 0 0 1 1zm1-25.586 6.293 6.293A.996.996 0 0 0 11 29h12v3a1 1 0 0 0 1 1h8a1 1 0 0 0 1-1v-3h14c.266 0 .52-.105.707-.293L54 22.414v11.324c-.014-.007-.029-.012-.043-.02-.197-.104-.401-.191-.602-.286-.216-.102-.429-.208-.65-.299a12.458 12.458 0 0 0-.268-.107c-.127-.05-.257-.088-.385-.134l-.068-.024c-.212-.075-.42-.156-.636-.221-.161-.049-.326-.087-.489-.13a13.533 13.533 0 0 0-.491-.122c-.144-.033-.285-.073-.43-.102-.253-.051-.511-.081-.767-.119-.158-.023-.314-.053-.473-.071-.071-.008-.14-.021-.211-.028a14.973 14.973 0 0 0-2.943-.004l-.045.005c-.168.017-.331.051-.498.073l-.095.014c-.262.037-.526.065-.784.115-.028.005-.054.013-.082.018-.195.039-.383.095-.575.142l-.091.022c-.212.053-.427.095-.636.157l-.107.035c-.202.062-.397.139-.596.209l-.129.045c-.167.061-.339.11-.503.177-.042.017-.082.038-.124.055-.202.083-.395.181-.592.273-.234.109-.47.215-.697.336-.196.104-.384.22-.574.333-.217.128-.435.253-.644.392-.187.124-.367.257-.548.389-.165.12-.335.233-.495.36-.022.017-.042.037-.064.055l-.035.03c-.176.141-.344.291-.514.44-.156.137-.315.27-.464.413l-.023.02-.007.011-.048.049c-.163.158-.319.323-.475.489-.167.177-.332.354-.49.539-.149.174-.29.353-.43.533-.149.191-.296.384-.436.583a14.5 14.5 0 0 0-.38.571 14.678 14.678 0 0 0-1.027 1.894 14.78 14.78 0 0 0-.926 2.731c-.053.226-.104.453-.146.683a14.84 14.84 0 0 0-.117.765c-.031.232-.061.464-.081.7-.008.091-.025.18-.031.271H4V22.414zM31 27h-6v-2h6v2zm0 2v2h-6v-2h6zm28.949 17h-6.991c-.137-2.217-.703-4.394-1.42-6.339 1.971-.31 3.679-.826 4.964-1.503A12.93 12.93 0 0 1 59.949 46zm-3.447 9.842c-1.286-.677-2.993-1.193-4.964-1.503.717-1.945 1.283-4.122 1.42-6.339h6.991a12.93 12.93 0 0 1-3.447 7.842zm-1.887 1.671c-.162.118-.323.237-.489.347-.195.128-.397.246-.598.364-.129.075-.254.157-.385.228-.332.179-.672.342-1.02.492-.118.051-.241.093-.36.14-.246.097-.494.192-.748.274-.143.046-.287.086-.432.128a12.797 12.797 0 0 1-1.174.281c-.163.031-.33.051-.495.076a36.063 36.063 0 0 0 1.844-3.585c1.6.222 3.04.576 4.149 1.037-.096.074-.193.147-.292.218zm-10.468 2.161a12.797 12.797 0 0 1-.73-.188c-.144-.042-.289-.082-.432-.128a13.91 13.91 0 0 1-.748-.274c-.12-.047-.242-.089-.36-.14-.348-.15-.688-.313-1.02-.492-.131-.071-.257-.153-.386-.229-.201-.118-.403-.235-.597-.363-.166-.11-.327-.229-.489-.347a10.094 10.094 0 0 1-.292-.219c1.109-.461 2.549-.815 4.149-1.037a35.85 35.85 0 0 0 1.844 3.585c-.165-.025-.332-.045-.495-.076a9.441 9.441 0 0 1-.444-.092zM34.051 48h6.991c.137 2.217.703 4.394 1.42 6.339-1.971.31-3.679.826-4.964 1.503A12.93 12.93 0 0 1 34.051 48zM47 54c-.853 0-1.679.042-2.485.107-.728-1.868-1.327-3.983-1.477-6.107h7.923c-.15 2.122-.75 4.237-1.479 6.107A30.729 30.729 0 0 0 47 54zm1.644 2.053a35.301 35.301 0 0 1-1.645 3.089 34.982 34.982 0 0 1-1.646-3.089A28.8 28.8 0 0 1 47 56c.555 0 1.103.022 1.644.053zM43.039 46c.15-2.122.75-4.237 1.479-6.107.805.065 1.63.107 2.482.107.853 0 1.679-.042 2.485-.107.728 1.868 1.327 3.983 1.477 6.107h-7.923zM47 38c-.555 0-1.103-.022-1.644-.053a35.301 35.301 0 0 1 1.645-3.089c.458.762 1.054 1.83 1.646 3.089A28.8 28.8 0 0 1 47 38zm-7.615-1.513c.162-.118.323-.237.489-.347.194-.128.396-.246.597-.363.129-.076.255-.158.386-.229.331-.179.672-.342 1.02-.492.118-.051.241-.093.36-.14.246-.097.494-.192.748-.274.143-.046.287-.086.432-.128a12.797 12.797 0 0 1 1.174-.281c.163-.031.33-.051.495-.076a36.063 36.063 0 0 0-1.844 3.585c-1.6-.222-3.04-.576-4.149-1.037.096-.074.193-.147.292-.218zm-1.887 1.671c1.286.677 2.993 1.193 4.964 1.503-.717 1.945-1.283 4.122-1.42 6.339h-6.991a12.93 12.93 0 0 1 3.447-7.842zm13.26-.416a35.85 35.85 0 0 0-1.844-3.585c.159.024.319.044.476.073l.066.013a13.31 13.31 0 0 1 1.127.271c.144.042.289.082.432.128.253.083.501.177.748.274.078.031.156.058.233.091.111.047.22.098.33.147a12.578 12.578 0 0 1 1.028.519c.059.033.116.069.174.103.145.084.288.171.429.261.087.056.175.11.262.168.135.09.266.186.397.282.098.071.196.144.292.219-1.11.46-2.55.815-4.15 1.036zM16 11c0-3.86 3.141-7 7-7h12c3.859 0 7 3.14 7 7v1h-2v-1c0-2.757-2.243-5-5-5H23c-2.757 0-5 2.243-5 5v1h-2v-1zm22 1H20v-1c0-1.654 1.346-3 3-3h12c1.654 0 3 1.346 3 3v1zm16 2v5.586L46.586 27H33v-3a1 1 0 0 0-1-1h-8a1 1 0 0 0-1 1v3H11.414L4 19.586V14h50z" fill="#000000" class="color000000 svgShape"></path>
  <path d="M8 50h2v2H8zM8 54h2v2H8zM16 58h2v2h-2zM12 58h2v2h-2zM20 58h2v2h-2zM28 58h2v2h-2zM32 58h2v2h-2zM24 58h2v2h-2zM8 58h2v2H8z" fill="#000000" class="color000000 svgShape"></path>
</svg>
