<svg xmlns="http://www.w3.org/2000/svg" xml:space="preserve" id="goalachievementnextstepgoingupmanflag" x="0" y="0" enable-background="new 0 0 64 64" version="1.1" viewBox="0 0 64 64">
  <rect width="9.817" height="8.083" x="9.5" y="51.417" fill="none" stroke="#000000" stroke-linejoin="round" stroke-miterlimit="10" class="colorStroke58595b svgStroke"></rect>
  <rect width="9.817" height="13.378" x="19.317" y="46.122" fill="none" stroke="#000000" stroke-linejoin="round" stroke-miterlimit="10" class="colorStroke58595b svgStroke"></rect>
  <rect width="9.817" height="17.838" x="29.134" y="41.662" fill="none" stroke="#000000" stroke-linejoin="round" stroke-miterlimit="10" class="colorStroke58595b svgStroke"></rect>
  <rect width="9.817" height="24.527" x="38.951" y="34.973" fill="none" stroke="#000000" stroke-linejoin="round" stroke-miterlimit="10" class="colorStroke58595b svgStroke"></rect>
  <path fill="none" stroke="#000000" stroke-linejoin="round" stroke-miterlimit="10" d="M36.9913177,35.1622124l-0.7112122,6.49963h-3.3563004l0.6557274-5.9533539l-2.3113232-3.1137276
			l-1.3339386,6.190773c-0.0333061,0.1114578-0.066679,0.2229195-0.1111088,0.334446
			c-1.4669895,3.2777138-3.0450897,6.4996986-3.2118187,7.0013351h-3.4785328
			c0.0444298-0.2118301,0.3222675-0.9699326,3.578516-8.2165718l1.9906254-8.4939556
			c0.0333042-0.1560974,0.0889263-0.3121948,0.166729-0.4459743l3.8230495,0.5462742h0.011055l3.6773033,4.1571712
			C36.8246574,34.0250244,37.0580635,34.5824585,36.9913177,35.1622124z" class="colorStroke58595b svgStroke"></path>
  <path fill="none" stroke="#000000" stroke-miterlimit="10" d="M44.4459953,16.5476494c-0.1573677-0.6586857-0.8139763-1.0642414-1.474926-0.9052849L32.968914,18.0582733
		c-0.0782776,0.0189171-0.1393929,0.0656643-0.2100067,0.0980549c-0.0267258,0.0118408-0.05196,0.0225906-0.0778008,0.0363369
		c-0.1093445,0.0598812-0.203022,0.1318054-0.2874718,0.2195168c-0.0348663,0.0346355-0.0669479,0.068182-0.097744,0.1071053
		c-0.0594215,0.0784569-0.1036453,0.1612015-0.1428528,0.2515659c-0.0209618,0.0451832-0.0566406,0.0789337-0.0723763,0.1275177
		l-3.2086563,10.0677357l3.8273888,0.5486565l3.5379105-9.7231503l7.3068047-1.7649117
		C44.1996307,17.8682899,44.6044502,17.2057915,44.4459953,16.5476494z" class="colorStroke58595b svgStroke"></path>
  <line x1="34.52" x2="36.237" y1="20.205" y2="19.792" fill="none" stroke="#000000" stroke-linecap="round" stroke-miterlimit="10" class="colorStroke58595b svgStroke"></line>
  <ellipse cx="34.976" cy="12.529" fill="none" stroke="#000000" stroke-linecap="round" stroke-miterlimit="10" rx="2.952" ry="2.962" class="colorStroke58595b svgStroke"></ellipse>
  <line x1="43.057" x2="43.057" y1="18.144" y2="34.973" fill="none" stroke="#000000" stroke-linejoin="round" stroke-miterlimit="10" class="colorStroke58595b svgStroke"></line>
  <line x1="43.057" x2="43.057" y1="4.5" y2="15.608" fill="none" stroke="#000000" stroke-linecap="round" stroke-linejoin="round" stroke-miterlimit="10" class="colorStroke58595b svgStroke"></line>
  <polygon fill="none" stroke="#000000" stroke-linejoin="round" stroke-miterlimit="10" points="43.057 13.187 43.057 4.918 54.5 9.052" class="colorStroke58595b svgStroke"></polygon>
</svg>
