<svg xmlns="http://www.w3.org/2000/svg" viewBox="0 0 1024 1024" id="Location">
  <path d="M768.3 347.6c0 3.2-.1 6.4-.3 9.6-.1 1.7-.3 3.3-.4 5-.1 1.3-.4 8-.3 3.1-.1 7.2-2.6 15-4.2 21.9-4 17-9.5 33.6-15.6 49.9-1.6 4.4-3.3 8.7-5.1 13l-2.4 6-1.5 3.6c-1.7 4.1 1.2-2.8-.5 1.3-4.1 9.6-8.4 19.1-12.8 28.6-9 19.1-18.5 37.9-28.5 56.5-39.8 74.4-85.1 145.9-132.5 215.6-21.1 31.1-42.6 62-65 92.1h25.9c-23.6-31.7-46.2-64.3-68.4-97.1-27.1-40.1-53.4-80.7-78.5-122.1-26.8-44.3-52.4-89.5-74.9-136.2-5.3-11-10.4-22-15.2-33.2-.6-1.4-1.2-2.9-1.8-4.3-1.1-2.7.6 1.4-.5-1.3-1.2-2.8-2.3-5.6-3.5-8.5-2.1-5.1-4.1-10.3-6-15.4-7-18.9-13.2-38.2-17.1-58-.8-4-2.2-8.6-2.2-12.7 0 2.2.3 2.3 0 .2-.1-1.1-.2-2.2-.4-3.3-.2-2.1-.4-4.2-.5-6.4-.6-10.4-.2-21 .7-31.4.3-3 .6-6 .9-8.9.1-.9.5-4.1.2-1.5.3-1.8.5-3.6.8-5.4.9-5.8 2-11.6 3.4-17.4 2.6-11.6 6-23 10.2-34.1 1-2.7 2.1-5.4 3.1-8.1 1.1-2.7-.6 1.3.5-1.3.7-1.6 1.4-3.2 2.2-4.9 2.4-5.2 4.9-10.4 7.6-15.4 5.5-10.3 11.6-20.2 18.4-29.6 1.7-2.3 3.3-4.6 5.1-6.9-1.5 2 .3-.4.9-1.1 1-1.2 1.9-2.4 2.9-3.6 3.7-4.6 7.6-9 11.7-13.3 7.9-8.5 16.3-16.4 25.3-23.8 2-1.7 4.1-3.3 6.1-4.9 1.3-1.1-.3.2-.4.3.7-.5 1.4-1.1 2.1-1.6 1.2-.9 2.5-1.8 3.7-2.7 4.6-3.3 9.3-6.5 14.2-9.5 9.9-6.2 20.2-11.8 30.7-16.7 1.4-.6 2.8-1.3 4.2-1.9.6-.2 3.8-1.6 2.5-1.1-1.3.5 2-.8 2.5-1 1.7-.7 3.3-1.3 5-1.9 5.4-2 10.9-3.9 16.5-5.6 11.5-3.5 23.1-6.2 35-8.2 1.4-.2 2.7-.4 4.1-.6.9-.1 1.8-.3 2.7-.4-.2 0-2.4.3-.6.1 3-.4 5.9-.7 8.9-1 6.3-.6 12.5-.9 18.8-1.1 12.4-.3 24.7.3 37 1.6 1.4.2 2.7.3 4.1.5-2.6-.3.5.1 1.5.2 3.2.5 6.3 1 9.4 1.6 6 1.1 12 2.4 17.9 3.9 11.3 2.9 22.3 6.5 33.1 10.8.8.3 4.5 1.9 2 .8 1.2.5 2.4 1.1 3.7 1.6l8.4 3.9c5.2 2.5 10.2 5.2 15.2 8 10.1 5.7 19.8 12.1 29.1 19.1.5.4 1 .8 1.6 1.2-.5-.4-2.2-1.7.1.1 1 .8 2.1 1.6 3.1 2.5 2.4 1.9 4.7 3.9 7 5.9 4.3 3.7 8.5 7.6 12.5 11.5 8.3 8.1 16 16.8 23.2 25.8l1.2 1.5c-.1-.2-1.4-1.8-.3-.4.9 1.2 1.8 2.4 2.7 3.7 1.7 2.3 3.3 4.6 4.9 7 3.3 4.9 6.5 9.9 9.5 15 6 10.1 11.2 20.5 15.9 31.2.7 1.6-.1-.3-.2-.5.3.6.5 1.2.8 1.8.5 1.2 1 2.5 1.5 3.7 1.1 2.9 2.2 5.8 3.2 8.8 1.9 5.5 3.7 11 5.2 16.7 3.2 11.6 5.7 23.4 7.3 35.3-.4-2.8.1 1.3.2 2.2.2 1.4.3 2.7.4 4.1.3 3 .5 6 .7 9 .2 6.4.4 12.4.4 18.5 0 7.8 6.9 15.4 15 15 8.1-.4 15-6.6 15-15-.1-50.8-13.6-101.3-39.4-145.1-24.9-42.3-61-78.2-103.5-102.8-44-25.5-94.7-38.8-145.5-38.4-50.7.4-101.1 14.4-144.6 40.4-42 25.1-77.4 61.2-101.8 103.6-24.9 43.5-38.6 94.2-37.7 144.4.7 40.7 15.4 81 30.9 118.1 20.3 48.7 44.9 95.4 71.2 141 26 45.1 53.7 89.2 82.3 132.6 26.9 40.6 54.5 80.8 83.3 120.1 1.8 2.5 3.7 5 5.5 7.5 7.1 9.6 18.8 9.6 25.9 0 43.6-58.6 84.5-119.4 123.4-181.2 46.4-73.7 91.1-149.8 123.4-231 13.7-34.5 26.4-71.8 26.5-109.4 0-7.8-6.9-15.4-15-15-8.1.6-14.9 6.8-14.9 15.2z" fill="#000000" class="color000000 svgShape"></path>
  <path d="M578.9 347.6c0 2.1-.1 4.2-.2 6.3-.1.9-.2 1.8-.3 2.8-.2 2.4.4-2.3 0 .1-.7 4.2-1.7 8.4-3 12.5-.6 1.7-1.2 3.4-1.8 5 1.1-2.7-.8 1.6-1.2 2.5-1.8 3.5-3.8 6.9-6.1 10.2.1-.1-2.5 3.4-1.2 1.6 1.1-1.4-.6.7-.9 1-1.3 1.5-2.6 3-3.9 4.4-1.2 1.3-2.5 2.5-3.8 3.6-.6.6-1.3 1.2-2 1.7-.2.2-3.6 2.8-1.1.9-2.8 2.1-5.8 4-8.8 5.7-1.7 1-3.5 1.9-5.3 2.7-.4.2-2.9 1.3-1.2.6 1.6-.7-2.1.8-2.6.9-3.6 1.3-7.3 2.3-11 3.1-.9.2-5.8.9-2.8.6-2.3.3-4.6.4-6.9.5-3.8.1-7.4-.1-11.2-.4-4.4-.3 1.8.3-.8-.1-.9-.2-1.8-.3-2.7-.5-2.2-.4-4.4-1-6.6-1.6-1.9-.5-3.8-1.2-5.7-1.9-.8-.3-1.7-.6-2.5-1 .6.2 2.5 1.2-.1-.1-3.6-1.8-7-3.6-10.4-5.7-1.5-1-2.9-2-4.3-3 2.4 1.8-1.9-1.6-2.5-2.2-2.9-2.6-5.6-5.5-8.2-8.5-.5-.5-2.2-2.9-.5-.6l-1.5-2.1c-1-1.4-2-2.9-2.9-4.4-.9-1.5-1.8-3-2.6-4.6-.5-.9-3-6.4-1.8-3.6-1.4-3.5-2.6-7.1-3.5-10.8-.5-2-.8-4-1.3-6-.1-.6-.4-2.9-.1-.1-.1-1.1-.2-2.3-.3-3.4-.3-4-.3-7.9-.1-11.9 0-.7.7-6 .2-2.9.4-2.2.8-4.5 1.3-6.7.9-3.7 2.1-7.3 3.4-10.9.9-2.4-1.6 3.1.3-.7.4-.8.8-1.6 1.1-2.4 1-2 2.1-3.9 3.2-5.8.9-1.5 1.9-3 2.9-4.4l1.5-2.1c-1.6 2.2-.3.4.1-.1 2.6-3 5.2-5.9 8.1-8.5.8-.7 1.6-1.4 2.5-2.2.3-.3 2.5-2 1-.9-1.4 1.1.8-.6 1.1-.8.9-.6 1.8-1.3 2.7-1.9 3.3-2.2 6.8-4 10.4-5.7.5-.2 2.6-1.1.1-.1.8-.3 1.7-.7 2.5-1 1.7-.6 3.4-1.2 5.1-1.7 1.9-.6 3.9-1.1 5.9-1.5.9-.2 1.8-.4 2.7-.5.7-.1 1.3-.2 2-.3-1.5.2-1.7.2-.6.1 3.9-.4 7.9-.6 11.9-.5 1.9.1 3.7.2 5.6.4 3 .3.7.1.1 0 1.3.2 2.7.4 4 .7 4.4.9 8.7 2.3 12.9 3.8.5.2 2.6 1.1.1 0 1 .5 2 .9 3 1.4 2 1 3.9 2 5.8 3.1s3.7 2.3 5.5 3.6c.3.2 2.5 1.9 1.1.8-1.3-1 1.7 1.4 2 1.7 3.1 2.7 6.1 5.7 8.8 8.8.6.7 1.1 1.3 1.7 2-1.9-2.4.4.6.8 1.2 1.3 1.8 2.4 3.6 3.5 5.5s2.1 3.8 3.1 5.8c.4.8.8 1.6 1.1 2.4-1.3-3 .4 1.1.5 1.4 1.5 4.2 2.7 8.6 3.6 13 .2.9.3 1.8.5 2.7-.4-2.2-.1-.4 0 .8.4 3.1.5 5.7.6 8.2.1 7.8 6.9 15.4 15 15 8.1-.4 15.1-6.6 15-15-.3-41.1-26.3-77.3-64.7-91.4-36.8-13.4-81-1.6-105.9 28.7-26.2 31.7-30.8 77.2-9.2 112.7 21.3 35.1 62.7 52.6 102.8 44.8 44.6-8.7 76.7-49.9 77-94.8.1-7.8-6.9-15.4-15-15-8.2.4-15 6.6-15 15zm189.4 511.8c0 .8-.1 1.7-.1 2.5.1 2.2.9-4.2.1-.9-.4 1.6-.8 3.2-1.3 4.8-.9 3.2 1.2-2.2.3-.6-.4.7-.7 1.4-1 2.1-.9 1.7-2.1 3.3-3.1 4.9-1.3 2 2.5-2.9.4-.5-.6.7-1.1 1.3-1.7 2-1.5 1.7-3.1 3.2-4.7 4.7-.7.6-4 4.2-4.8 4.1 0 0 3.1-2.3.9-.7-.5.3-1 .7-1.4 1.1l-3 2.1c-4.4 3-9 5.6-13.7 8.1-2.4 1.3-4.8 2.5-7.3 3.6-1.4.6-2.7 1.3-4.1 1.9-1 .4-5.6 2.3-2.3 1-12.6 5-25.3 9.4-38.4 12.9-15.1 4.1-30.4 7.5-45.8 10.2-17.7 3.1-31.5 4.9-49.6 6.6-38.4 3.6-77.1 4.4-115.6 2.5-36.2-1.7-68.6-5.3-103.5-12.7-14.3-3-28.6-6.6-42.5-11.1-6.4-2-12.8-4.3-19-6.7-1.5-.6-2.9-1.2-4.4-1.8 2.8 1.1-.1 0-1.2-.5-2.9-1.3-5.8-2.6-8.6-4-4.7-2.3-9.4-4.9-13.9-7.7-2-1.2-4-2.5-5.9-3.9-.7-.5-2.5-1.4-2.9-2.1 0 .1 2.9 2.4 1 .7-.5-.5-1.1-.9-1.6-1.4-3.1-2.6-6-5.5-8.7-8.6-2.4-2.8 1.4 2.1.1.2-.5-.8-1.1-1.5-1.6-2.3-1-1.5-1.7-3.2-2.6-4.7-1.2-1.9 1.3 3.9.3.6-.2-.7-.5-1.4-.7-2.1l-.6-2.4c-.1-.3-.1-.6-.2-.9-.6-2.3.1 3.9.2 1.5.1-1.6 0-3.2 0-4.8 0-2.9-.9 3.3-.2 1.1.3-.9.4-2 .7-2.9.2-.9.6-1.7.8-2.6.8-2.8-1.5 2.8-.3.7 1-1.8 1.9-3.6 3-5.3.2-.3 1.6-2.1 1.5-2.1.4.5-2.3 2.8-.9 1.2.4-.4.7-.8 1-1.2 1.4-1.7 3-3.2 4.6-4.8 1.6-1.5 3.3-2.9 5-4.4 2.8-2.3-2.4 1.6.7-.5 1.2-.8 2.4-1.7 3.6-2.5 4.5-3 9.3-5.8 14.1-8.3 2.6-1.3 5.1-2.6 7.8-3.8 1.5-.7 2.9-1.3 4.4-2 .7-.3 1.5-.7 2.3-1-2 .8-.9.4.5-.2 6.4-2.5 12.8-4.9 19.3-7 15.2-5 30.8-8.9 46.5-12.2 17.4-3.6 34.6-6.3 51.1-8.2 9.5-1.1 19-2 28.5-2.7-4.3-2.5-8.6-5-13-7.4 20.3 29.7 40.8 59.3 62.3 88.2 7.1 9.6 18.8 9.6 25.9 0 21.5-28.9 42.1-58.5 62.3-88.2-4.3 2.5-8.6 5-13 7.4 39.5 3.1 77.9 8.7 116.7 20.2 7.9 2.3 15.7 4.9 23.4 7.9l5.4 2.1c.7.3 3.4 1.4.5.2.8.3 1.5.6 2.3 1 3.2 1.4 6.5 2.9 9.6 4.5 5.7 2.9 11.3 6 16.6 9.6 1.2.8 2.4 1.7 3.6 2.5 2.9 2-2.1-1.9 1 .8 2 1.7 4 3.4 5.9 5.2 1 1 1.9 2 2.8 3 .4.5.9 1 1.3 1.5 2 2.2-.8-.7-.7-.9 0 .1 3.6 5.6 3.9 6.2 2.1 4.1-.4-2 .3.5.3 1.1.7 2.1 1 3.2.2.8.9 4.7.4 1.6-.4-3.2 0 1.1 0 1.9.1 7.8 6.8 15.4 15 15 8.1-.4 15.1-6.6 15-15-.3-26.2-22.2-44.9-43.2-56.8-31.1-17.7-67-27.2-102-33.8-26-5-52.4-8.2-78.8-10.3-5.4-.4-10.1 3.2-13 7.4-20.3 29.7-40.8 59.3-62.3 88.2h25.9c-21.5-28.9-42.1-58.5-62.3-88.2-2.9-4.2-7.5-7.9-13-7.4-38.6 3-77.3 8.4-114.8 18.5-26.8 7.2-54.8 16.7-77.6 33-16.6 11.9-32.8 29.3-31.6 51.3 1.3 21.5 16.7 37.5 33.6 49 21.9 15 48.2 24 73.6 31 34.6 9.5 70.3 14.9 106 18.1 77.3 7 157.4 4 233.2-13.4 28-6.4 56.4-15.1 81.6-29.1 17.9-9.9 35.8-23.9 42.4-44.1 1.4-4.3 2-8.9 2.1-13.4.1-7.8-7-15.4-15-15-8 .3-14.7 6.6-14.8 15z" fill="#000000" class="color000000 svgShape"></path>
</svg>
