<svg xmlns="http://www.w3.org/2000/svg" enable-background="new 0 0 496 504" viewBox="0 0 496 504" id="Visa">
  <path d="M388.77,246.642c28.079,0,50.923-22.786,50.923-50.792s-22.844-50.792-50.923-50.792s-50.924,22.786-50.924,50.792
	S360.69,246.642,388.77,246.642z M349.081,212.129c5.954,2.157,12.107,3.835,18.36,5.002c1.169,6.229,2.85,12.359,5.01,18.289
	C361.892,231.077,353.441,222.654,349.081,212.129z M431.692,195.849c0,2.249-0.177,4.456-0.514,6.612
	c-6.356,2.71-13.015,4.811-19.823,6.261c0.484-4.279,0.736-8.58,0.736-12.873c0-4.294-0.252-8.595-0.736-12.874
	c6.809,1.45,13.468,3.552,19.824,6.262C431.515,191.393,431.692,193.6,431.692,195.849z M404.091,195.849
	c0,4.773-0.327,9.557-0.967,14.301c-4.762,0.64-9.564,0.966-14.354,0.966c-4.79,0-9.592-0.326-14.354-0.966
	c-0.64-4.744-0.967-9.528-0.967-14.301c0-4.773,0.327-9.557,0.967-14.302c4.762-0.639,9.563-0.966,14.354-0.966
	c4.79,0,9.592,0.327,14.354,0.966C403.764,186.292,404.091,191.076,404.091,195.849z M366.184,208.723
	c-6.809-1.45-13.468-3.552-19.824-6.261c-0.337-2.156-0.514-4.364-0.514-6.613c0-2.249,0.177-4.457,0.514-6.614
	c6.356-2.709,13.015-4.811,19.824-6.261c-0.484,4.279-0.736,8.581-0.736,12.875C365.448,200.143,365.7,204.444,366.184,208.723z
	 M382.123,238.127c-2.714-6.331-4.819-12.963-6.272-19.745c4.294,0.483,8.61,0.735,12.919,0.735c4.308,0,8.625-0.252,12.919-0.735
	c-1.453,6.782-3.559,13.415-6.273,19.746c-2.167,0.337-4.386,0.515-6.646,0.515C386.509,238.642,384.29,238.464,382.123,238.127z
	 M405.088,235.42c2.16-5.931,3.841-12.06,5.01-18.29c6.253-1.167,12.406-2.845,18.359-5.002
	C424.098,222.654,415.647,231.076,405.088,235.42z M428.457,179.569c-5.953-2.157-12.106-3.835-18.359-5.002
	c-1.169-6.229-2.851-12.358-5.01-18.289C415.646,160.621,424.097,169.044,428.457,179.569z M395.415,153.572
	c2.714,6.332,4.82,12.964,6.273,19.745c-4.293-0.483-8.61-0.735-12.918-0.735c-0.001,0-0.002,0-0.003,0
	c-4.307,0-8.623,0.252-12.916,0.735c1.453-6.782,3.559-13.414,6.273-19.745c2.167-0.337,4.385-0.515,6.646-0.515
	S393.248,153.234,395.415,153.572z M372.451,156.278c-2.16,5.93-3.841,12.059-5.01,18.289c-6.253,1.167-12.406,2.845-18.359,5.002
	C353.442,169.044,361.892,160.622,372.451,156.278z M337.102,316.83h103.335c12.526,0,22.718-10.19,22.718-22.717
	s-10.191-22.717-22.718-22.717H337.102c-12.526,0-22.717,10.19-22.717,22.717S324.575,316.83,337.102,316.83z M337.102,279.396
	h103.335c8.115,0,14.718,6.602,14.718,14.717s-6.603,14.717-14.718,14.717H337.102c-8.115,0-14.717-6.602-14.717-14.717
	S328.986,279.396,337.102,279.396z M0,4v496c0,2.209,1.791,4,4,4h347.23c2.209,0,4-1.791,4-4V377.66h120.347
	c11.261,0,20.423-9.141,20.423-20.377V125.877c0-15.226-12.417-27.613-27.679-27.613H355.23V4c0-2.209-1.791-4-4-4H4
	C1.791,0,0,1.791,0,4z M475.577,369.66h-171.27c-6.751,0-12.446-4.542-14.2-10.717h183.152c5.621,0,10.768-2.049,14.741-5.433v3.773
	C488,364.107,482.427,369.66,475.577,369.66z M304.308,377.66H305v6.038H50.23v-38.793h231.308v10.038
	C281.538,367.47,291.752,377.66,304.308,377.66z M290.107,350.943c1.755-6.175,7.45-10.717,14.2-10.717h183.13
	c-1.745,6.173-7.433,10.717-14.179,10.717H290.107z M488,125.877v206.35H304.308c-5.631,0-10.791,2.05-14.77,5.44v-211.79
	c0-10.814,8.828-19.613,19.679-19.613h4.476h154.629C479.172,106.264,488,115.063,488,125.877z M309.692,98.264h-0.476H186.308
	V59.472h123.385V98.264z M8,8h339.23v90.264h-29.538V55.472c0-2.209-1.791-4-4-4H182.308c-2.209,0-4,1.791-4,4v46.792
	c0,2.209,1.791,4,4,4h107.448c-5.071,5.008-8.218,11.95-8.218,19.613v47.255h-99.23c-2.209,0-4,1.791-4,4s1.791,4,4,4h99.23v80.906
	H46.23c-2.209,0-4,1.791-4,4s1.791,4,4,4h235.308v29.434H46.23c-2.209,0-4,1.791-4,4s1.791,4,4,4h235.308v29.434H46.23
	c-2.209,0-4,1.791-4,4v46.793c0,2.209,1.791,4,4,4H309c2.209,0,4-1.791,4-4V377.66h34.23V496H8V8z M158.154,191.17V41.434
	c0-2.209-1.791-4-4-4H41.538c-2.209,0-4,1.791-4,4V191.17c0,2.209,1.791,4,4,4h112.616
	C156.363,195.17,158.154,193.379,158.154,191.17z M45.538,45.434h104.616V187.17h-0.913c-9.788-21.099-24.725-29.908-34.437-33.531
	l0.001-6.868c5.676-3.443,10.015-8.017,12.292-11.639c1.808-2.876,3.339-6.94,4.55-12.079c1.57-6.66,2.157-13.717,1.743-20.972
	c-1.989-34.868-20.428-42.187-35.546-42.187S64.287,67.214,62.3,102.082c-0.415,7.252,0.172,14.308,1.743,20.972
	c1.211,5.139,2.742,9.203,4.551,12.079c2.278,3.622,6.617,8.197,12.293,11.639l-0.002,6.866
	c-9.711,3.622-24.647,12.43-34.433,33.531h-0.913V45.434z M97.845,143.813c-9.894,0-19.101-7.566-22.479-12.938
	c-1.301-2.068-2.557-5.498-3.536-9.656c-1.395-5.914-1.914-12.199-1.544-18.681c1.329-23.311,10.344-34.643,27.559-34.643
	c17.214,0,26.229,11.332,27.56,34.643c0.369,6.486-0.15,12.771-1.544,18.681c0,0,0,0,0,0c-0.979,4.158-2.235,7.587-3.535,9.655
	C116.946,136.247,107.739,143.813,97.845,143.813z M88.884,156.501l0.002-6.088c2.822,0.878,5.824,1.399,8.959,1.399
	c3.135,0,6.138-0.521,8.959-1.399l-0.001,6.085c0,1.755,1.144,3.305,2.82,3.823c7.655,2.363,21.203,8.937,30.69,26.848H55.379
	c9.485-17.912,23.032-24.486,30.684-26.848C87.74,159.804,88.883,158.255,88.884,156.501z M178.308,139.698c0-2.209,1.791-4,4-4
	h56.308c2.209,0,4,1.791,4,4s-1.791,4-4,4h-56.308C180.099,143.698,178.308,141.907,178.308,139.698z M140.077,429.132H46.23
	c-2.209,0-4-1.791-4-4s1.791-4,4-4h93.847c2.209,0,4,1.791,4,4S142.286,429.132,140.077,429.132z M46.23,224.604H205.77
	c2.209,0,4,1.791,4,4s-1.791,4-4,4H46.23c-2.209,0-4-1.791-4-4S44.021,224.604,46.23,224.604z M313,425.132c0,2.209-1.791,4-4,4
	h-93.846c-2.209,0-4-1.791-4-4s1.791-4,4-4H309C311.209,421.132,313,422.923,313,425.132z M198.992,412.74
	c1.675,1.439,1.866,3.965,0.426,5.641l-56.308,65.51c-0.762,0.887-1.871,1.393-3.033,1.393c-0.08,0-0.16-0.002-0.241-0.007
	c-1.248-0.076-2.389-0.73-3.084-1.77l-18.77-28.075c-1.228-1.837-0.734-4.321,1.102-5.549c1.838-1.231,4.321-0.734,5.549,1.102
	l15.843,23.698l52.876-61.517C194.791,411.492,197.315,411.298,198.992,412.74z" fill="#000000" class="color000000 svgShape"></path>
</svg>
