<svg xmlns="http://www.w3.org/2000/svg" viewBox="0 0 512 512" id="markettrends">
  <path d="M470.669 41.059H41.331a8 8 0 0 0-8 8v310.448a8 8 0 0 0 8 8h429.338a8 8 0 0 0 8-8V49.059a8 8 0 0 0-8-8m-8 310.448H49.331V57.059h413.338Zm7.423-335.136H41.908A33.3 33.3 0 0 0 8.643 49.636v336.946a33.3 33.3 0 0 0 33.265 33.264h139.663v30.766h-16.829a22.509 22.509 0 1 0 0 45.017h182.516a22.509 22.509 0 1 0 0-45.017h-16.829v-30.766h139.663a33.3 33.3 0 0 0 33.265-33.264V49.636a33.3 33.3 0 0 0-33.265-33.265m-116.325 456.75a6.516 6.516 0 0 1-6.509 6.508H164.742a6.509 6.509 0 1 1 0-13.017h182.516a6.516 6.516 0 0 1 6.509 6.509m-39.338-22.509H197.571v-30.766h116.858Zm172.928-64.03a17.284 17.284 0 0 1-17.265 17.264H41.908a17.284 17.284 0 0 1-17.265-17.264V49.636a17.284 17.284 0 0 1 17.265-17.265h428.184a17.284 17.284 0 0 1 17.265 17.265Zm-313.5-128.673h-40.214a8 8 0 0 0-8 8V321.7a8 8 0 0 0 8 8h40.209a8 8 0 0 0 8-8v-55.791a8 8 0 0 0-8-8Zm-8 55.789h-24.214v-39.789h24.209Zm144.331-107.227h-40.209a8 8 0 0 0-8 8V321.7a8 8 0 0 0 8 8h40.209a8 8 0 0 0 8-8V214.471a8 8 0 0 0-8-8m-8 107.227h-24.209v-91.227h24.209Zm27.96-131.009V321.7a8 8 0 0 0 8 8h40.209a8 8 0 0 0 8-8V182.689a8 8 0 0 0-8-8h-40.209a8 8 0 0 0-8 8m16 8h24.209V313.7h-24.209Zm-104.127 45.672h-40.209a8 8 0 0 0-8 8V321.7a8 8 0 0 0 8 8h40.209a8 8 0 0 0 8-8v-77.339a8 8 0 0 0-8-8m-8 77.337h-24.209v-61.337h24.209ZM125.535 140.026c-.811-4.5-6.184-7.858-14.373-8.979-10.085-1.38-17.833-7.215-20.727-15.609a22.15 22.15 0 0 1 5.025-22.46 26.26 26.26 0 0 1 11.322-6.713v-6.212a8 8 0 0 1 16 0v6a28.43 28.43 0 0 1 14.655 9.629 8 8 0 0 1-12.422 10.085 12.4 12.4 0 0 0-9.288-4.723 11.78 11.78 0 0 0-8.788 3.08 6.02 6.02 0 0 0-1.378 6.1c.912 2.645 3.671 4.411 7.771 4.972 15.4 2.108 25.846 10.329 27.949 21.992a23.82 23.82 0 0 1-12.447 25.146 30.7 30.7 0 0 1-6.052 2.444v6.212a8 8 0 0 1-16 0v-5.835a30.3 30.3 0 0 1-4.7-1.537c-6.948-2.936-12-8.341-13.852-14.829a8 8 0 1 1 15.383-4.4c.518 1.81 2.23 3.446 4.7 4.488a15.37 15.37 0 0 0 12.955-.64 7.97 7.97 0 0 0 4.267-8.211m20.326 78.68a8 8 0 0 1 6.536-9.234c66.447-11.371 127.3-41.607 185.514-92.229h-5.84a8 8 0 0 1 0-16h26.182a8 8 0 0 1 8 8v26.035a8 8 0 0 1-16 0V127.7c-27.981 24.5-57.088 44.789-86.718 60.406A364.2 364.2 0 0 1 155.1 225.242a7.99 7.99 0 0 1-9.236-6.536Z" fill="#ffffff" class="color000000 svgShape"></path>
</svg>
